# Made in Blockbench 4.11.2
mtllib materials.mtl

o body
v 0.26875 0.64375 0.39375
v 0.26875 0.64375 -0.39375
v 0.26875 0.10625000000000001 0.39375
v 0.26875 0.10625000000000001 -0.39375
v -0.26875 0.64375 -0.39375
v -0.26875 0.64375 0.39375
v -0.26875 0.10625000000000001 -0.39375
v -0.26875 0.10625000000000001 0.39375
vt 0.1875 0.5
vt 0.3125 0.5
vt 0.3125 0.375
vt 0.1875 0.375
vt 0 0.5
vt 0.1875 0.5
vt 0.1875 0.375
vt 0 0.375
vt 0.5 0.5
vt 0.625 0.5
vt 0.625 0.375
vt 0.5 0.375
vt 0.3125 0.5
vt 0.5 0.5
vt 0.5 0.375
vt 0.3125 0.375
vt 0.3125 0.5
vt 0.1875 0.5
vt 0.1875 0.6875
vt 0.3125 0.6875
vt 0.4375 0.6875
vt 0.3125 0.6875
vt 0.3125 0.5
vt 0.4375 0.5
vn 0 0 -1
vn 1 0 0
vn 0 0 1
vn -1 0 0
vn 0 1 0
vn 0 -1 0
usemtl m_de00cf2f-a0a2-d315-a3eb-f81ccf39a3ef
f 4/4/1 7/3/1 5/2/1 2/1/1
f 3/8/2 4/7/2 2/6/2 1/5/2
f 8/12/3 3/11/3 1/10/3 6/9/3
f 7/16/4 8/15/4 6/14/4 5/13/4
f 6/20/5 1/19/5 2/18/5 5/17/5
f 7/24/6 4/23/6 3/22/6 8/21/6
o body
v 0.25 0.625 0.375
v 0.25 0.625 -0.375
v 0.25 0.125 0.375
v 0.25 0.125 -0.375
v -0.25 0.625 -0.375
v -0.25 0.625 0.375
v -0.25 0.125 -0.375
v -0.25 0.125 0.375
vt 0.1875 0.1875
vt 0.3125 0.1875
vt 0.3125 0.0625
vt 0.1875 0.0625
vt 0 0.1875
vt 0.1875 0.1875
vt 0.1875 0.0625
vt 0 0.0625
vt 0.5 0.1875
vt 0.625 0.1875
vt 0.625 0.0625
vt 0.5 0.0625
vt 0.3125 0.1875
vt 0.5 0.1875
vt 0.5 0.0625
vt 0.3125 0.0625
vt 0.3125 0.1875
vt 0.1875 0.1875
vt 0.1875 0.375
vt 0.3125 0.375
vt 0.4375 0.375
vt 0.3125 0.375
vt 0.3125 0.1875
vt 0.4375 0.1875
vn 0 0 -1
vn 1 0 0
vn 0 0 1
vn -1 0 0
vn 0 1 0
vn 0 -1 0
usemtl m_de00cf2f-a0a2-d315-a3eb-f81ccf39a3ef
f 12/28/7 15/27/7 13/26/7 10/25/7
f 11/32/8 12/31/8 10/30/8 9/29/8
f 16/36/9 11/35/9 9/34/9 14/33/9
f 15/40/10 16/39/10 14/38/10 13/37/10
f 14/44/11 9/43/11 10/42/11 13/41/11
f 15/48/12 12/47/12 11/46/12 16/45/12
o tail
v 0.03125 0.41285211494454443 0.36964218433480744
v 0.03125 0.3825515136791484 0.31497845263859525
v 0.03125 0.08486972476727109 0.5514457919271838
v 0.03125 0.05456912350187501 0.4967820602309716
v -0.03125 0.3825515136791484 0.31497845263859525
v -0.03125 0.41285211494454443 0.36964218433480744
v -0.03125 0.05456912350187501 0.4967820602309716
v -0.03125 0.08486972476727109 0.5514457919271838
vt 0.703125 0.15625
vt 0.71875 0.15625
vt 0.71875 0.0625
vt 0.703125 0.0625
vt 0.6875 0.15625
vt 0.703125 0.15625
vt 0.703125 0.0625
vt 0.6875 0.0625
vt 0.734375 0.15625
vt 0.75 0.15625
vt 0.75 0.0625
vt 0.734375 0.0625
vt 0.71875 0.15625
vt 0.734375 0.15625
vt 0.734375 0.0625
vt 0.71875 0.0625
vt 0.71875 0.15625
vt 0.703125 0.15625
vt 0.703125 0.171875
vt 0.71875 0.171875
vt 0.734375 0.171875
vt 0.71875 0.171875
vt 0.71875 0.15625
vt 0.734375 0.15625
vn 0 -0.48480962024633706 -0.8746197071393957
vn 1 0 0
vn 0 0.48480962024633706 0.8746197071393957
vn -1 0 0
vn 0 0.8746197071393957 -0.48480962024633706
vn 0 -0.8746197071393957 0.48480962024633706
usemtl m_de00cf2f-a0a2-d315-a3eb-f81ccf39a3ef
f 20/52/13 23/51/13 21/50/13 18/49/13
f 19/56/14 20/55/14 18/54/14 17/53/14
f 24/60/15 19/59/15 17/58/15 22/57/15
f 23/64/16 24/63/16 22/62/16 21/61/16
f 22/68/17 17/67/17 18/66/17 21/65/17
f 23/72/18 20/71/18 19/70/18 24/69/18
o head
v 0.09375 0.34632475625913733 -0.35583981469522646
v 0.09375 0.39416018530477354 -0.47132475625913733
v 0.09375 0.057612402349360214 -0.475428387309317
v 0.09375 0.10544783139499642 -0.5909133288732278
v -0.09375 0.39416018530477354 -0.47132475625913733
v -0.09375 0.34632475625913733 -0.35583981469522646
v -0.09375 0.10544783139499642 -0.5909133288732278
v -0.09375 0.057612402349360214 -0.475428387309317
vt 0.703125 0.734375
vt 0.75 0.734375
vt 0.75 0.65625
vt 0.703125 0.65625
vt 0.671875 0.734375
vt 0.703125 0.734375
vt 0.703125 0.65625
vt 0.671875 0.65625
vt 0.78125 0.734375
vt 0.828125 0.734375
vt 0.828125 0.65625
vt 0.78125 0.65625
vt 0.75 0.734375
vt 0.78125 0.734375
vt 0.78125 0.65625
vt 0.75 0.65625
vt 0.75 0.734375
vt 0.703125 0.734375
vt 0.703125 0.765625
vt 0.75 0.765625
vt 0.796875 0.765625
vt 0.75 0.765625
vt 0.75 0.734375
vt 0.796875 0.734375
vn 0 0.3826834323650897 -0.9238795325112867
vn 1 0 0
vn 0 -0.3826834323650897 0.9238795325112867
vn -1 0 0
vn 0 0.9238795325112867 0.3826834323650897
vn 0 -0.9238795325112867 -0.3826834323650897
usemtl m_de00cf2f-a0a2-d315-a3eb-f81ccf39a3ef
f 28/76/19 31/75/19 29/74/19 26/73/19
f 27/80/20 28/79/20 26/78/20 25/77/20
f 32/84/21 27/83/21 25/82/21 30/81/21
f 31/88/22 32/87/22 30/86/22 29/85/22
f 30/92/23 25/91/23 26/90/23 29/89/23
f 31/96/24 28/95/24 27/94/24 32/93/24
o right_ear
v 0.20923493386790748 0.5513449235700973 -0.554667734877939
v 0.20923493386790748 0.5513449235700973 -0.554667734877939
v 0.20923495217431076 0.24359250285083464 -0.5004026674640528
v 0.20923495217431076 0.24359250285083464 -0.5004026674640528
v 0.09374998901615803 0.5596514524315577 -0.5075590404483317
v 0.09374998901615803 0.5596514524315577 -0.5075590404483317
v 0.09375000732256132 0.25189903171229494 -0.4532939730344455
v 0.09375000732256132 0.25189903171229494 -0.4532939730344455
vt 0.671875 0.84375
vt 0.703125 0.84375
vt 0.703125 0.765625
vt 0.671875 0.765625
vt 0.671875 0.84375
vt 0.671875 0.84375
vt 0.671875 0.765625
vt 0.671875 0.765625
vt 0.703125 0.84375
vt 0.734375 0.84375
vt 0.734375 0.765625
vt 0.703125 0.765625
vt 0.703125 0.84375
vt 0.703125 0.84375
vt 0.703125 0.765625
vt 0.703125 0.765625
vt 0.703125 0.84375
vt 0.671875 0.84375
vt 0.671875 0.84375
vt 0.703125 0.84375
vt 0.734375 0.84375
vt 0.703125 0.84375
vt 0.703125 0.84375
vt 0.734375 0.84375
vn -0.38268336886472254 -0.16043005900953244 -0.9098437422769607
vn 0.9238795588139957 -0.0664522308916823 -0.37686955543685835
vn 0.38268336886472254 0.16043005900953244 0.9098437422769607
vn -0.9238795588139957 0.0664522308916823 0.37686955543685835
vn -5.8580490583381994e-8 0.9848077463016407 -0.17364821572443548
vn 5.8580490583381994e-8 -0.9848077463016407 0.17364821572443548
usemtl m_de00cf2f-a0a2-d315-a3eb-f81ccf39a3ef
f 36/100/25 39/99/25 37/98/25 34/97/25
f 35/104/26 36/103/26 34/102/26 33/101/26
f 40/108/27 35/107/27 33/106/27 38/105/27
f 39/112/28 40/111/28 38/110/28 37/109/28
f 38/116/29 33/115/29 34/114/29 37/113/29
f 39/120/30 36/119/30 35/118/30 40/117/30
o left_ear
v -0.09374998901615803 0.5596514524315577 -0.5075590404483317
v -0.09374998901615803 0.5596514524315577 -0.5075590404483317
v -0.09375000732256132 0.25189903171229494 -0.4532939730344455
v -0.09375000732256132 0.25189903171229494 -0.4532939730344455
v -0.20923493386790748 0.5513449235700973 -0.554667734877939
v -0.20923493386790748 0.5513449235700973 -0.554667734877939
v -0.20923495217431076 0.24359250285083464 -0.5004026674640528
v -0.20923495217431076 0.24359250285083464 -0.5004026674640528
vt 0.734375 0.84375
vt 0.765625 0.84375
vt 0.765625 0.765625
vt 0.734375 0.765625
vt 0.734375 0.84375
vt 0.734375 0.84375
vt 0.734375 0.765625
vt 0.734375 0.765625
vt 0.765625 0.84375
vt 0.796875 0.84375
vt 0.796875 0.765625
vt 0.765625 0.765625
vt 0.765625 0.84375
vt 0.765625 0.84375
vt 0.765625 0.765625
vt 0.765625 0.765625
vt 0.765625 0.84375
vt 0.734375 0.84375
vt 0.734375 0.84375
vt 0.765625 0.84375
vt 0.796875 0.84375
vt 0.765625 0.84375
vt 0.765625 0.84375
vt 0.796875 0.84375
vn 0.38268336886472254 -0.16043005900953244 -0.9098437422769607
vn 0.9238795588139957 0.0664522308916823 0.37686955543685835
vn -0.38268336886472254 0.16043005900953244 0.9098437422769607
vn -0.9238795588139957 -0.0664522308916823 -0.37686955543685835
vn 5.8580490583381994e-8 0.9848077463016407 -0.17364821572443548
vn -5.8580490583381994e-8 -0.9848077463016407 0.17364821572443548
usemtl m_de00cf2f-a0a2-d315-a3eb-f81ccf39a3ef
f 44/124/31 47/123/31 45/122/31 42/121/31
f 43/128/32 44/127/32 42/126/32 41/125/32
f 48/132/33 43/131/33 41/130/33 46/129/33
f 47/136/34 48/135/34 46/134/34 45/133/34
f 46/140/35 41/139/35 42/138/35 45/137/35
f 47/144/36 44/143/36 43/142/36 48/141/36
o right_hind_leg
v 0.1875 0.1875 0.3125
v 0.1875 0.1875 0.1875
v 0.1875 0 0.3125
v 0.1875 0 0.1875
v 0.0625 0.1875 0.1875
v 0.0625 0.1875 0.3125
v 0.0625 0 0.1875
v 0.0625 0 0.3125
vt 0.828125 0.484375
vt 0.859375 0.484375
vt 0.859375 0.4375
vt 0.828125 0.4375
vt 0.796875 0.484375
vt 0.828125 0.484375
vt 0.828125 0.4375
vt 0.796875 0.4375
vt 0.890625 0.484375
vt 0.921875 0.484375
vt 0.921875 0.4375
vt 0.890625 0.4375
vt 0.859375 0.484375
vt 0.890625 0.484375
vt 0.890625 0.4375
vt 0.859375 0.4375
vt 0.859375 0.484375
vt 0.828125 0.484375
vt 0.828125 0.515625
vt 0.859375 0.515625
vt 0.890625 0.515625
vt 0.859375 0.515625
vt 0.859375 0.484375
vt 0.890625 0.484375
vn 0 0 -1
vn 1 0 0
vn 0 0 1
vn -1 0 0
vn 0 1 0
vn 0 -1 0
usemtl m_de00cf2f-a0a2-d315-a3eb-f81ccf39a3ef
f 52/148/37 55/147/37 53/146/37 50/145/37
f 51/152/38 52/151/38 50/150/38 49/149/38
f 56/156/39 51/155/39 49/154/39 54/153/39
f 55/160/40 56/159/40 54/158/40 53/157/40
f 54/164/41 49/163/41 50/162/41 53/161/41
f 55/168/42 52/167/42 51/166/42 56/165/42
o left_hind_leg
v -0.0625 0.1875 0.3125
v -0.0625 0.1875 0.1875
v -0.0625 0 0.3125
v -0.0625 0 0.1875
v -0.1875 0.1875 0.1875
v -0.1875 0.1875 0.3125
v -0.1875 0 0.1875
v -0.1875 0 0.3125
vt 0.6875 0.484375
vt 0.71875 0.484375
vt 0.71875 0.4375
vt 0.6875 0.4375
vt 0.65625 0.484375
vt 0.6875 0.484375
vt 0.6875 0.4375
vt 0.65625 0.4375
vt 0.75 0.484375
vt 0.78125 0.484375
vt 0.78125 0.4375
vt 0.75 0.4375
vt 0.71875 0.484375
vt 0.75 0.484375
vt 0.75 0.4375
vt 0.71875 0.4375
vt 0.71875 0.484375
vt 0.6875 0.484375
vt 0.6875 0.515625
vt 0.71875 0.515625
vt 0.75 0.515625
vt 0.71875 0.515625
vt 0.71875 0.484375
vt 0.75 0.484375
vn 0 0 -1
vn 1 0 0
vn 0 0 1
vn -1 0 0
vn 0 1 0
vn 0 -1 0
usemtl m_de00cf2f-a0a2-d315-a3eb-f81ccf39a3ef
f 60/172/43 63/171/43 61/170/43 58/169/43
f 59/176/44 60/175/44 58/174/44 57/173/44
f 64/180/45 59/179/45 57/178/45 62/177/45
f 63/184/46 64/183/46 62/182/46 61/181/46
f 62/188/47 57/187/47 58/186/47 61/185/47
f 63/192/48 60/191/48 59/190/48 64/189/48
o right_front_leg
v 0.1875 0.1875 -0.1875
v 0.1875 0.1875 -0.3125
v 0.1875 0 -0.1875
v 0.1875 0 -0.3125
v 0.0625 0.1875 -0.3125
v 0.0625 0.1875 -0.1875
v 0.0625 0 -0.3125
v 0.0625 0 -0.1875
vt 0.828125 0.296875
vt 0.859375 0.296875
vt 0.859375 0.25
vt 0.828125 0.25
vt 0.796875 0.296875
vt 0.828125 0.296875
vt 0.828125 0.25
vt 0.796875 0.25
vt 0.890625 0.296875
vt 0.921875 0.296875
vt 0.921875 0.25
vt 0.890625 0.25
vt 0.859375 0.296875
vt 0.890625 0.296875
vt 0.890625 0.25
vt 0.859375 0.25
vt 0.859375 0.296875
vt 0.828125 0.296875
vt 0.828125 0.328125
vt 0.859375 0.328125
vt 0.890625 0.328125
vt 0.859375 0.328125
vt 0.859375 0.296875
vt 0.890625 0.296875
vn 0 0 -1
vn 1 0 0
vn 0 0 1
vn -1 0 0
vn 0 1 0
vn 0 -1 0
usemtl m_de00cf2f-a0a2-d315-a3eb-f81ccf39a3ef
f 68/196/49 71/195/49 69/194/49 66/193/49
f 67/200/50 68/199/50 66/198/50 65/197/50
f 72/204/51 67/203/51 65/202/51 70/201/51
f 71/208/52 72/207/52 70/206/52 69/205/52
f 70/212/53 65/211/53 66/210/53 69/209/53
f 71/216/54 68/215/54 67/214/54 72/213/54
o left_front_leg
v -0.0625 0.1875 -0.1875
v -0.0625 0.1875 -0.3125
v -0.0625 0 -0.1875
v -0.0625 0 -0.3125
v -0.1875 0.1875 -0.3125
v -0.1875 0.1875 -0.1875
v -0.1875 0 -0.3125
v -0.1875 0 -0.1875
vt 0.6875 0.296875
vt 0.71875 0.296875
vt 0.71875 0.25
vt 0.6875 0.25
vt 0.65625 0.296875
vt 0.6875 0.296875
vt 0.6875 0.25
vt 0.65625 0.25
vt 0.75 0.296875
vt 0.78125 0.296875
vt 0.78125 0.25
vt 0.75 0.25
vt 0.71875 0.296875
vt 0.75 0.296875
vt 0.75 0.25
vt 0.71875 0.25
vt 0.71875 0.296875
vt 0.6875 0.296875
vt 0.6875 0.328125
vt 0.71875 0.328125
vt 0.75 0.328125
vt 0.71875 0.328125
vt 0.71875 0.296875
vt 0.75 0.296875
vn 0 0 -1
vn 1 0 0
vn 0 0 1
vn -1 0 0
vn 0 1 0
vn 0 -1 0
usemtl m_de00cf2f-a0a2-d315-a3eb-f81ccf39a3ef
f 76/220/55 79/219/55 77/218/55 74/217/55
f 75/224/56 76/223/56 74/222/56 73/221/56
f 80/228/57 75/227/57 73/226/57 78/225/57
f 79/232/58 80/231/58 78/230/58 77/229/58
f 78/236/59 73/235/59 74/234/59 77/233/59
f 79/240/60 76/239/60 75/238/60 80/237/60